    <svg class="gwc-logo" xmlns="http://www.w3.org/2000/svg" xmlns:xlink="http://www.w3.org/1999/xlink" version="1.1" x="0px" y="0px" viewBox="0 0 100 125" enable-background="new 0 0 100 100" xml:space="preserve"><g><circle fill="#FF3B3F" cx="73.1" cy="21.8" r="8.1"/><circle fill="#FF3B3F" cx="73.1" cy="47.8" r="8.1"/><circle fill="#FF3B3F" cx="73.1" cy="74.8" r="8.1"/><circle fill="#FF3B3F" cx="49.9" cy="21.8" r="8.1"/><path fill="#A9A9A9" d="M49.9,38.2c-5.3,0-9.6,4.3-9.6,9.6s4.3,9.6,9.6,9.6c5.3,0,9.6-4.3,9.6-9.6S55.2,38.2,49.9,38.2z M49.9,54.4   c-3.6,0-6.6-3-6.6-6.6c0-3.6,3-6.6,6.6-6.6c3.6,0,6.6,3,6.6,6.6C56.5,51.5,53.5,54.4,49.9,54.4z"/><circle fill="#FF3B3F" cx="26.9" cy="47.8" r="8.1"/><circle fill="#FF3B3F" cx="26.9" cy="21.8" r="8.1"/><circle fill="#FF3B3F" cx="26.9" cy="74.8" r="8.1"/><circle fill="#FF3B3F" cx="49.9" cy="74.8" r="8.1"/></g></svg>